<svg width="130" height="31" viewBox="0 0 130 31" fill="none" xmlns="http://www.w3.org/2000/svg">
<path fill-rule="evenodd" clip-rule="evenodd" d="M109.408 7.73608H114.835C119.229 7.73608 121.554 10.6662 121.554 15.0057C121.554 19.3452 119.229 22.3123 114.835 22.3123H109.408V7.73608ZM115.389 0.540527H102.023V3.49568C106.102 3.49493 114.06 3.49905 115.643 3.50858C120.725 3.53926 124.227 6.2784 125.503 11.2212L125.508 11.2437C125.59 11.6918 125.747 13.2747 125.747 14.4126C125.747 14.729 125.737 15.2448 125.727 15.6999C125.715 16.2804 125.703 16.8658 125.703 17.2952C125.658 20.6936 123.181 24.339 120.182 25.4258C118.612 25.9947 117.088 26.3205 115.777 26.368C114.17 26.4258 106.082 26.429 105.349 26.4301L105.027 26.4305V5.78091H105.816V25.6403C106.659 25.6394 114.133 25.6338 115.748 25.5756C116.979 25.5315 118.42 25.2218 119.914 24.68C122.63 23.696 124.873 20.3807 124.914 17.2898C124.914 16.8463 124.927 16.225 124.938 15.6771C124.948 15.2031 124.958 14.7129 124.958 14.4126C124.958 13.2643 124.802 11.7801 124.735 11.4026C123.555 6.85106 120.325 4.32962 115.638 4.30137C114.057 4.29165 106.103 4.2881 102.023 4.28903V29.4708H115.389C124.397 29.4708 129.012 22.9057 129.012 15.0056C129.012 7.14244 124.397 0.540527 115.389 0.540527Z" fill="#EC912D"/>
<path fill-rule="evenodd" clip-rule="evenodd" d="M76.0977 0.540527V25.4348H93.0391V22.3123H79.2312V0.540527H76.0977Z" fill="#7AA040"/>
<path fill-rule="evenodd" clip-rule="evenodd" d="M75.2841 26.2506V0.540527H71.8848V29.4708H93.04V26.2506H75.2841Z" fill="#7AA040"/>
<path fill-rule="evenodd" clip-rule="evenodd" d="M55.3414 15.0055C55.3414 19.3819 51.9447 22.8687 47.5144 22.8687C43.1948 22.8687 39.6875 19.3819 39.6875 15.0055C39.6875 10.6288 43.1948 7.14233 47.5144 7.14233C51.9447 7.14233 55.3414 10.6288 55.3414 15.0055ZM47.9101 0.000187023C47.9084 1.73258 47.9064 3.29984 47.9062 3.43038L47.9058 3.76178L47.5759 3.75262C47.5391 3.75168 47.502 3.75094 47.465 3.75094C44.4203 3.75636 41.5377 4.94433 39.3492 7.0964C37.186 9.22248 35.9979 11.9953 36.0036 14.9035C36.0142 20.2454 39.8755 24.9057 45.1845 25.9844L45.4421 26.0366V26.8404L45.0577 26.7634C39.3657 25.6224 35.226 20.6352 35.2145 14.905C35.2087 11.7813 36.481 8.8071 38.7968 6.52991C41.0505 4.31444 44.0008 3.05259 47.1204 2.966V0C38.8596 0.203668 32.2266 6.84392 32.2266 15.0056C32.2266 23.1697 38.8637 29.8115 47.128 30.0112L47.1314 26.2109L47.5072 26.2203C50.599 26.2203 53.5153 24.9958 55.7189 22.7721C57.8458 20.6266 59.0104 17.8345 58.9985 14.91C58.9862 11.9695 57.7853 9.18508 55.6171 7.06947C54.0177 5.50951 52.0252 4.44703 49.8547 3.99668L49.5986 3.94338V3.14311L49.9841 3.22185C52.319 3.69932 54.4569 4.83324 56.1664 6.50111C58.4881 8.76558 59.7743 11.751 59.7875 14.9069C59.8007 18.0434 58.5543 21.0354 56.2783 23.3313C54.0287 25.6008 51.0622 26.9008 47.9093 27.003V30.0108C56.167 29.8036 62.7963 23.1649 62.7963 15.0056C62.7963 6.84635 56.1674 0.207783 47.9101 0.000187023Z" fill="#006C73"/>
<path fill-rule="evenodd" clip-rule="evenodd" d="M7.38477 17.676H14.7686C16.762 17.676 17.5005 18.6777 17.5005 20.1612C17.5005 21.6819 16.762 22.7574 14.7686 22.7574H7.38477V17.676ZM7.38477 7.29077H13.8824C15.433 7.29077 16.2085 8.21803 16.2085 9.59059C16.2085 10.9628 15.4698 11.89 13.4762 11.89H7.38477V7.29077ZM20.1581 14.5976C22.2994 13.4107 23.6653 11.4449 23.6653 8.51482C23.6653 3.91573 20.5275 0.540527 14.3249 0.540527H0V14.5302H13.8364C15.7861 14.5302 17.2916 13.8717 18.3105 12.5727C19.0665 11.6097 19.2588 10.6501 19.2606 10.6405C19.3513 10.2244 19.3984 9.79817 19.4023 9.36409C19.4269 6.67694 17.6271 4.78932 14.7054 4.43771C14.4941 4.41228 13.8479 4.38236 13.513 4.38236H3.7834L3.79122 13.2721H3.00226L3.00281 3.57947L13.532 3.59031C13.9427 3.59031 14.5719 3.62342 14.7987 3.65053C18.1027 4.04833 20.2194 6.29392 20.1915 9.3712C20.187 9.85877 20.1337 10.339 20.0336 10.7989C20.0286 10.8251 19.3943 13.8811 16.2312 14.9542C20.8672 16.2331 21.5795 19.2191 21.5795 20.929C21.5795 24.2513 19.4068 26.2573 15.6184 26.4324C15.0735 26.4576 14.5112 26.4754 13.8991 26.487L9.74584 26.4868C8.97773 26.4793 8.18318 26.4717 7.40539 26.4717L2.99388 26.4752L2.9734 16.8504H3.76217L3.78228 25.682L7.40483 25.679C8.17015 25.679 8.94012 25.6863 9.68477 25.6934L13.8919 25.6946C14.4826 25.6835 15.0373 25.6658 15.5821 25.6405C18.9894 25.483 20.7903 23.8537 20.7903 20.929C20.7903 18.8007 19.6456 17.2146 17.3877 16.2153C15.6684 15.4541 13.9451 15.3309 13.8208 15.323H0V29.4708H15.5802C21.4134 29.4708 24.958 26.0956 24.958 21.3109C24.958 17.9357 23.0749 15.7102 20.1581 14.5976Z" fill="#455675"/>
</svg>
