<svg width="137" height="44" viewBox="0 0 137 44" fill="none" xmlns="http://www.w3.org/2000/svg">
<g clip-path="url(#clip0_2255_675)">
<path d="M0 13.604C0 11.9273 1.34973 9.86404 2.80649 9.02566L17.493 0.629984C18.3242 0.216285 19.2401 0.000976562 20.1686 0.000976562C21.0972 0.000976562 22.0131 0.216285 22.8443 0.629984L37.3168 9.02566C38.0705 9.5336 38.6924 10.2139 39.1308 11.0101C39.5692 11.8063 39.8116 12.6955 39.8378 13.604V30.3954C39.815 31.3027 39.576 32.1914 39.1406 32.9877C38.7053 33.784 38.0861 34.4649 37.3346 34.9738L22.8027 43.3694C21.9862 43.7827 21.0838 43.9981 20.1686 43.9981C19.2535 43.9981 18.3511 43.7827 17.5346 43.3694L2.78865 34.9738C1.32595 34.1354 0 32.0721 0 30.3954V13.604Z" fill="url(#paint0_linear_2255_675)"/>
<path d="M28.7749 19.0264C28.8055 20.204 28.4824 21.3639 27.8473 22.3561C27.1981 23.3185 26.2858 24.0739 25.2192 24.5323C23.9462 25.0756 22.5715 25.3391 21.1879 25.3053H19.4041C19.2464 25.3053 19.0951 25.3679 18.9836 25.4794C18.8721 25.5909 18.8095 25.7422 18.8095 25.8999V30.5853C18.8095 30.743 18.7468 30.8942 18.6353 31.0057C18.5238 31.1172 18.3726 31.1799 18.2149 31.1799H13.1727C13.015 31.1799 12.8638 31.1172 12.7523 31.0057C12.6408 30.8942 12.5781 30.743 12.5781 30.5853V28.2069C12.5781 25.2934 14.897 22.8556 19.5527 20.7626L20.2187 20.4177L20.9143 22.9328C20.9258 22.9597 20.9448 22.9825 20.9691 22.9986C20.9934 23.0147 21.022 23.0232 21.0511 23.0232C21.0802 23.0232 21.1087 23.0147 21.1331 22.9986C21.1574 22.9825 21.1764 22.9597 21.1879 22.9328L24.8684 16.5469C24.8825 16.525 24.8904 16.4996 24.8911 16.4736C24.8919 16.4475 24.8855 16.4218 24.8726 16.3991C24.8597 16.3764 24.8409 16.3577 24.8181 16.345C24.7954 16.3322 24.7696 16.326 24.7435 16.3269H17.4062C17.3768 16.3273 17.3481 16.3365 17.3239 16.3532C17.2996 16.3699 17.2809 16.3935 17.2701 16.4209C17.2592 16.4483 17.2568 16.4783 17.263 16.5071C17.2693 16.5359 17.2839 16.5621 17.3052 16.5826L19.2197 18.4318C17.6679 19.2285 15.8365 19.7458 14.9624 19.621C13.1192 19.395 12.5841 17.3793 12.5841 15.4588V13.3301C12.5841 13.1725 12.6467 13.0212 12.7582 12.9097C12.8697 12.7982 13.021 12.7356 13.1787 12.7356H21.1879C22.5704 12.7005 23.9446 12.9599 25.2192 13.4966C26.3068 13.9411 27.232 14.7084 27.8699 15.695C28.5079 16.6817 28.8279 17.8403 28.7868 19.0145L28.7749 19.0264Z" fill="white"/>
<path d="M55.0064 23.9852H49.4113V30.9182H45.8438V12.7949H55.0064C56.4574 12.8292 57.8355 13.4375 58.8387 14.4863C59.8418 15.5352 60.3881 16.939 60.3578 18.3901C60.3865 19.8406 59.8397 21.2436 58.8369 22.2921C57.8341 23.3406 56.4569 23.9493 55.0064 23.9852ZM49.4113 15.9641V20.8101H54.7627C55.7616 20.8101 56.814 20.1501 56.814 18.3841C56.814 16.6182 55.7616 15.9582 54.7627 15.9582L49.4113 15.9641Z" fill="#27205B"/>
<path d="M65.6942 30.9186H62.4656V17.3916H65.6942V30.9186ZM64.065 15.1916C63.7122 15.1916 63.3674 15.087 63.074 14.891C62.7807 14.695 62.552 14.4164 62.417 14.0904C62.282 13.7645 62.2467 13.4058 62.3155 13.0598C62.3844 12.7138 62.5542 12.3959 62.8037 12.1465C63.0532 11.897 63.371 11.7271 63.717 11.6583C64.0631 11.5895 64.4217 11.6248 64.7477 11.7598C65.0736 11.8948 65.3522 12.1234 65.5482 12.4168C65.7442 12.7101 65.8488 13.055 65.8488 13.4078C65.8488 13.8809 65.6609 14.3346 65.3264 14.6691C64.9918 15.0037 64.5381 15.1916 64.065 15.1916Z" fill="#27205B"/>
<path d="M77.9706 17.7069C80.3966 18.7891 81.7404 21.4172 81.7404 23.9858V30.9188H78.4879V23.8966C78.4872 23.4638 78.401 23.0354 78.2342 22.636C78.0675 22.2366 77.8236 21.874 77.5165 21.5691C77.2093 21.2642 76.845 21.0229 76.4444 20.8591C76.0438 20.6952 75.6148 20.6121 75.182 20.6145H74.9204C74.0939 20.7154 73.3336 21.1175 72.7851 21.7439C72.2366 22.3703 71.9383 23.177 71.9474 24.0096V30.9188H68.7188V17.3918H71.9474V19.0745C72.1636 18.7648 72.4218 18.4867 72.7144 18.248C73.5481 17.5563 74.6045 17.1908 75.6874 17.2193C76.4495 17.2154 77.205 17.3608 77.9112 17.6474C77.8933 17.6772 77.8933 17.7069 77.9706 17.7069Z" fill="#27205B"/>
<path d="M89.0276 28.6944H89.3962V30.9479H87.4876C87.1124 30.9495 86.7405 30.8767 86.3935 30.7338C86.0466 30.591 85.7313 30.3808 85.466 30.1155C85.2006 29.8501 84.9905 29.5349 84.8476 29.1879C84.7047 28.8409 84.632 28.4691 84.6335 28.0938V19.5614H83.2422V17.3911H84.6454V12.7949H87.8979V17.3911H89.4081V19.5614H87.8979V27.5528C87.8994 27.853 88.0185 28.1407 88.2297 28.3541C88.4409 28.5676 88.7274 28.6897 89.0276 28.6944Z" fill="#27205B"/>
<path d="M104.786 24.1814C104.781 24.4301 104.761 24.6783 104.726 24.9246H93.6848C93.8264 25.6865 94.1839 26.3916 94.7148 26.9561C95.2457 27.5205 95.9276 27.9205 96.6794 28.1085C97.4312 28.2964 98.2211 28.2644 98.9552 28.0162C99.6892 27.7679 100.337 27.314 100.82 26.7084H104.328C103.684 28.3541 102.448 29.6998 100.863 30.4815C99.2776 31.2631 97.4576 31.4243 95.7598 30.9334C94.0619 30.4426 92.6087 29.3351 91.6852 27.8282C90.7617 26.3213 90.4345 24.5237 90.7678 22.788C91.1011 21.0524 92.0709 19.5039 93.4869 18.4462C94.9029 17.3886 96.663 16.8982 98.4218 17.0711C100.181 17.2441 101.812 18.068 102.994 19.3812C104.177 20.6944 104.827 22.4021 104.816 24.1695L104.786 24.1814ZM93.881 22.7543H101.444C101.148 21.987 100.628 21.3265 99.9515 20.8588C99.2749 20.3911 98.4732 20.1379 97.6508 20.1322C96.8304 20.1345 96.0303 20.3867 95.3568 20.8551C94.6833 21.3236 94.1686 21.986 93.881 22.7543Z" fill="#27205B"/>
<path d="M111.441 28.6349H111.786V30.9182H109.877C109.504 30.9166 109.135 30.8415 108.79 30.6973C108.446 30.553 108.134 30.3423 107.871 30.0773C107.608 29.8123 107.4 29.4981 107.259 29.1527C107.117 28.8072 107.045 28.4373 107.047 28.0641V12.7949H110.276V27.523C110.279 27.6727 110.311 27.8203 110.372 27.9573C110.432 28.0943 110.519 28.218 110.627 28.3213C110.735 28.4247 110.863 28.5056 111.003 28.5594C111.142 28.6132 111.291 28.6389 111.441 28.6349Z" fill="#27205B"/>
<path d="M131.096 30.9182L129.383 26.5241H119.935L118.253 30.9182H116.469L123.521 12.7949H125.863L132.891 30.9182H131.096ZM120.506 25.1268H128.83L124.668 14.3349L120.506 25.1268Z" fill="#27205B"/>
<path d="M136.318 30.9182H134.719V12.7949H136.318V30.9182Z" fill="#27205B"/>
<path d="M114.454 30.9185C114.947 30.9185 115.346 30.5192 115.346 30.0267C115.346 29.5341 114.947 29.1348 114.454 29.1348C113.962 29.1348 113.562 29.5341 113.562 30.0267C113.562 30.5192 113.962 30.9185 114.454 30.9185Z" fill="#27205B"/>
</g>
<defs>
<linearGradient id="paint0_linear_2255_675" x1="4.82216" y1="37.2273" x2="35.2654" y2="6.78999" gradientUnits="userSpaceOnUse">
<stop offset="1" stop-color="#6979F8"/>
</linearGradient>
<clipPath id="clip0_2255_675">
<rect width="136.323" height="44" fill="white"/>
</clipPath>
</defs>
</svg>
