<svg width="191" height="45" viewBox="0 0 191 45" fill="none" xmlns="http://www.w3.org/2000/svg">
<path opacity="0.8" d="M22.3071 44.5001C31.5101 44.5001 38.9706 36.437 38.9706 26.4906C38.9706 16.5443 31.5101 8.4812 22.3071 8.4812C13.1041 8.4812 5.64352 16.5443 5.64352 26.4906C5.64352 36.437 13.1041 44.5001 22.3071 44.5001Z" fill="#004CF2"/>
<path opacity="0.8" d="M32.1413 30.2538C37.9103 30.2538 42.5871 25.1993 42.5871 18.9643C42.5871 12.7293 37.9103 7.6748 32.1413 7.6748C26.3722 7.6748 21.6955 12.7293 21.6955 18.9643C21.6955 25.1993 26.3722 30.2538 32.1413 30.2538Z" fill="#FBA536"/>
<path opacity="0.7" d="M25.7892 5.77279C27.1364 5.77279 28.2286 4.59244 28.2286 3.1364C28.2286 1.68035 27.1364 0.5 25.7892 0.5C24.442 0.5 23.3498 1.68035 23.3498 3.1364C23.3498 4.59244 24.442 5.77279 25.7892 5.77279Z" fill="#FF5362"/>
<path opacity="0.8" d="M17.4862 36.1673C24.7662 36.1673 30.6678 29.7891 30.6678 21.9211C30.6678 14.0531 24.7662 7.6748 17.4862 7.6748C10.2061 7.6748 4.30453 14.0531 4.30453 21.9211C4.30453 29.7891 10.2061 36.1673 17.4862 36.1673Z" fill="#6319C3"/>
<path opacity="0.8" d="M29.8262 43.6109C35.1408 43.6109 39.4492 38.9545 39.4492 33.2106C39.4492 27.4667 35.1408 22.8103 29.8262 22.8103C24.5115 22.8103 20.2031 27.4667 20.2031 33.2106C20.2031 38.9545 24.5115 43.6109 29.8262 43.6109Z" fill="#FF5362"/>
<path opacity="0.7" d="M1.16692 25.2294C1.81139 25.2294 2.33384 25.794 2.33384 26.4905C2.33384 27.1871 1.81139 27.7517 1.16692 27.7517C0.522447 27.7517 0 27.1871 0 26.4905C0 25.794 0.522447 25.2294 1.16692 25.2294Z" fill="#6319C3"/>
<path opacity="0.7" d="M42.9502 31.4586C43.6873 31.4586 44.2848 30.8128 44.2848 30.0162C44.2848 29.2195 43.6873 28.5737 42.9502 28.5737C42.2131 28.5737 41.6156 29.2195 41.6156 30.0162C41.6156 30.8128 42.2131 31.4586 42.9502 31.4586Z" fill="#FF5362"/>
<path opacity="0.7" d="M48.1731 27.7518C49.7344 27.7518 51 26.3839 51 24.6966C51 23.0092 49.7344 21.6414 48.1731 21.6414C46.6119 21.6414 45.3462 23.0092 45.3462 24.6966C45.3462 26.3839 46.6119 27.7518 48.1731 27.7518Z" fill="#004CF2"/>
<path opacity="0.7" d="M6.08922 43.1303C6.90019 43.1303 7.55761 42.4198 7.55761 41.5433C7.55761 40.6668 6.90019 39.9563 6.08922 39.9563C5.27824 39.9563 4.62082 40.6668 4.62082 41.5433C4.62082 42.4198 5.27824 43.1303 6.08922 43.1303Z" fill="#FBA536"/>
<path d="M19.5052 22.3483C20.8897 22.3483 22.0159 21.1311 22.0159 19.6356C22.0159 18.1393 20.8897 16.9221 19.5052 16.9221C18.1214 16.9221 16.9952 18.1393 16.9952 19.6356C16.9952 21.1311 18.1214 22.3483 19.5052 22.3483ZM19.5052 18.411C20.1299 18.411 20.6383 18.9604 20.6383 19.6356C20.6383 20.3108 20.1299 20.8594 19.5052 20.8594C18.8804 20.8594 18.3728 20.3108 18.3728 19.6356C18.3728 18.9604 18.8804 18.411 19.5052 18.411Z" fill="#FBA536"/>
<path d="M27.9836 22.3483C29.3681 22.3483 30.4942 21.1311 30.4942 19.6356C30.4942 18.1393 29.3681 16.9221 27.9836 16.9221C26.5998 16.9221 25.4736 18.1393 25.4736 19.6356C25.4743 21.1311 26.6005 22.3483 27.9836 22.3483ZM27.9836 18.411C28.6083 18.411 29.1167 18.9604 29.1167 19.6356C29.1167 20.3108 28.609 20.8594 27.9836 20.8594C27.3595 20.8594 26.8512 20.3108 26.8512 19.6356C26.8512 18.9604 27.3595 18.411 27.9836 18.411Z" fill="#FBA536"/>
<path d="M28.6862 23.2788H18.8033C16.2107 23.2788 14.1016 25.5583 14.1016 28.3603V30.2846C14.1016 30.6963 14.4101 31.0291 14.7904 31.0291C15.1706 31.0291 15.4792 30.6963 15.4792 30.2846V28.3603C15.4792 26.3794 16.9704 24.7677 18.8033 24.7677H23.0559V26.1114C23.0697 26.6704 23.6386 27.0233 24.0919 26.7538C24.3536 26.5908 24.7345 26.8223 24.7345 27.158C24.7345 27.4886 24.3481 27.7231 24.0933 27.5623C23.6393 27.292 23.0697 27.6441 23.0552 28.204V29.5402H19.0616C18.6821 29.5402 18.3728 29.2067 18.3728 28.7958V27.158C18.3728 26.7464 18.0642 26.4136 17.684 26.4136C17.3038 26.4136 16.9952 26.7464 16.9952 27.158V28.7958C16.9952 30.0271 17.9223 31.0291 19.0616 31.0291H28.4279C29.5671 31.0291 30.4942 30.0271 30.4942 28.7958V27.1543C30.4942 26.7426 30.1864 26.4099 29.8054 26.4099C29.4245 26.4099 29.1166 26.7426 29.1166 27.1543V28.7958C29.1166 29.2067 28.8081 29.5402 28.4279 29.5402H24.4335V29.098C25.3696 29.0251 26.1128 28.1876 26.1128 27.158C26.1128 26.1285 25.3696 25.291 24.4335 25.2173V24.7669H28.6862C30.519 24.7669 32.0103 26.3786 32.0103 28.3595V30.2869C32.0103 30.6985 32.3182 31.0313 32.6991 31.0313C33.08 31.0313 33.3879 30.6985 33.3879 30.2869V28.3595C33.3879 25.5583 31.2788 23.2788 28.6862 23.2788Z" fill="#FBA536"/>
<path d="M62.7612 15.9238C63.1541 16.4268 63.364 17.0885 63.3907 17.9088C63.4205 18.7322 63.3774 19.5013 63.2613 20.2158C63.1422 20.9303 63.172 21.7298 63.3506 22.6141C63.4071 22.8256 63.48 23.2149 63.5693 23.7821C63.6557 24.3524 63.7583 24.8266 63.8774 25.2047C63.9935 25.5828 64.1602 25.9193 64.3775 26.2141C64.6513 26.5954 64.9832 26.48 65.3731 25.868C65.5874 25.5316 65.9 24.8683 66.3107 23.8782C66.7215 22.8881 67.1322 22.172 67.543 21.7298C67.9359 21.3325 68.2827 21.1178 68.5833 21.0857C68.8869 21.0537 69.2441 21.2267 69.6548 21.6048C70.0656 22.0278 70.5403 22.8384 71.0791 24.0368C71.6149 25.2384 72.1566 26.0282 72.7043 26.4063C72.9394 26.5537 73.2133 26.3118 73.5258 25.6806C73.9574 24.9019 74.2119 24.0016 74.2893 22.9794C74.3696 21.9573 74.3696 21.0777 74.2893 20.3408C74.2119 19.6038 74.2908 18.7835 74.5259 17.8799C74.6241 17.5211 74.8831 17.2952 75.3028 17.2022C75.7225 17.1061 76.1288 17.1942 76.5217 17.4666C76.9116 17.7421 77.1363 18.1539 77.1959 18.7018C77.428 20.9544 77.3789 22.9169 77.0485 24.5895C76.7151 26.2621 75.8743 27.5839 74.5259 28.5547C73.2936 29.4167 72.0718 29.532 70.8603 28.9008C70.4287 28.6893 69.9629 28.1622 69.4629 27.3195C68.9658 26.4768 68.6592 26.0459 68.5431 26.0266C68.424 26.0042 68.2425 26.2093 67.9984 26.6418C67.7543 27.0744 67.4507 27.5695 67.0876 28.127C66.7274 28.6845 66.3807 29.0578 66.0473 29.2469C65.4014 29.6474 64.7123 29.8525 63.9801 29.8621C63.2449 29.8717 62.6526 29.6137 62.2031 29.0882C61.4233 27.9732 60.8518 26.6947 60.4886 25.2528C60.1255 23.8109 59.9648 22.4059 60.0064 21.0377C60.0451 19.6695 60.1136 18.2276 60.2118 16.712C60.2892 16.0167 60.6509 15.5905 61.2968 15.4335C61.9427 15.2733 62.4308 15.4367 62.7612 15.9238Z" fill="black"/>
<path d="M84.9686 30.5112C84.8109 30.4055 84.6487 30.1892 84.482 29.8624C84.3153 29.5355 84.1635 29.3721 84.0266 29.3721C83.7527 29.3305 83.3375 29.268 82.7809 29.1847C82.2243 29.1014 81.7852 29.0228 81.4638 28.9492C81.1393 28.8755 80.7628 28.7649 80.3342 28.6175C79.9026 28.4701 79.5305 28.2586 79.218 27.9831C78.9055 27.7107 78.642 27.3743 78.4277 26.9738C78.0557 26.3618 77.9083 25.6088 77.9857 24.7148C78.0631 23.8208 78.2983 23.0999 78.6912 22.5519C79.1406 21.9015 79.6689 21.3808 80.2762 20.9899C80.8804 20.599 81.4608 20.341 82.0174 20.2161C82.577 20.0911 83.1009 20.0222 83.589 20.0094C84.0772 19.9998 84.4775 20.0158 84.79 20.0575L85.2588 20.0911C85.4166 19.8796 85.4955 19.5112 85.4955 18.9857C85.4955 18.4602 85.3481 18.1654 85.0535 18.1013C84.7618 17.9539 84.3659 17.9219 83.8658 18.0052C83.3688 18.0885 83.0175 18.1622 82.8121 18.2263C82.6068 18.2903 82.2645 18.4329 81.7852 18.654C81.306 18.8751 80.9384 19.0273 80.6824 19.1106C80.1764 19.2997 79.8059 19.0001 79.5707 18.2118C79.3356 17.4204 79.3162 16.9205 79.5127 16.7123C80.2538 16.1644 81.1334 15.7542 82.1514 15.4819C83.1693 15.2063 84.1813 15.1999 85.1874 15.4626C86.1935 15.7254 86.9019 16.3198 87.3126 17.2458C87.5865 17.8578 87.7383 18.5371 87.7681 19.2837C87.7978 20.0302 87.7487 20.6983 87.6207 21.2879C87.4957 21.8775 87.3499 22.5888 87.1832 23.4219C87.0165 24.2518 86.9138 24.9615 86.8751 25.5511C86.7173 28.2042 86.4331 29.8159 86.0223 30.3862C85.7306 30.7419 85.3794 30.7836 84.9686 30.5112ZM84.4373 26.6902C84.4969 26.3954 84.5862 26.0269 84.7052 25.5847C84.8213 25.1426 84.9136 24.7853 84.982 24.5129C85.0505 24.2374 85.0803 23.9057 85.0713 23.518C85.0594 23.1271 84.9761 22.7314 84.8213 22.3309C84.5088 22.459 84.034 22.5808 83.397 22.6961C82.763 22.8115 82.2347 22.9156 81.812 23.0085C81.3923 23.1047 81.0069 23.337 80.6557 23.7055C80.3044 24.0739 80.1184 24.5738 80.0976 25.205C80.0976 25.628 80.4547 26.0077 81.1691 26.3441C81.8835 26.6806 82.5636 26.8584 83.2095 26.8776C83.8524 26.9001 84.2617 26.8376 84.4373 26.6902Z" fill="black"/>
<path d="M88.7508 16.8995C88.9264 15.1949 89.6899 13.6585 91.0413 12.2903C91.5502 11.7648 92.1664 11.3338 92.8897 10.9974C93.613 10.6577 94.3318 10.4575 95.0462 10.3966C95.7576 10.3325 96.4169 10.4959 97.0241 10.8868C97.6313 11.2745 98.042 11.901 98.2563 12.7661C98.295 13.0609 98.2117 13.3172 98.0063 13.5351C97.8009 13.7562 97.5717 13.8459 97.3187 13.8043C97.0836 13.785 96.6922 13.7017 96.1445 13.5543C95.5968 13.407 95.2099 13.3284 94.9837 13.3188C94.7604 13.306 94.3556 13.3637 93.7692 13.4919C92.9656 13.7866 92.3494 14.2545 91.9208 14.8953C91.4892 15.5361 91.2496 16.2523 91.202 17.0437C91.1514 17.832 91.205 18.6218 91.3627 19.4132C91.5205 20.2015 91.7646 20.9737 92.0949 21.7299C92.214 21.7107 92.9626 21.379 94.3407 20.735C95.7189 20.0941 96.652 19.8586 97.1401 20.0285C97.414 20.0477 97.6045 20.2047 97.7116 20.4995C97.8218 20.7943 97.8173 21.089 97.6982 21.3838C97.5613 21.7619 97.1268 22.1144 96.3945 22.4412C95.6593 22.7681 94.9494 23.0676 94.2648 23.34C93.5802 23.6156 93.2186 23.8895 93.1799 24.1619C93.0817 24.6681 93.3466 25.3362 93.9746 26.1661C94.5997 26.9992 94.9613 27.584 95.0596 27.9204C95.2352 28.2985 95.0447 28.6045 94.4881 28.8384C93.9285 29.0691 93.4537 29.0996 93.0638 28.9297C92.5757 28.5933 92.0875 27.9461 91.5994 26.988C91.1082 26.0299 90.6484 25.4147 90.2197 25.1424C90.1602 25.1199 89.9355 25.1199 89.5456 25.1424C89.1527 25.1648 88.849 25.144 88.6347 25.0799C88.4383 25.0991 88.2909 24.9838 88.1927 24.7338C88.0975 24.4807 88.0692 24.2276 88.1079 23.9744C88.1853 23.827 88.4249 23.6268 88.8267 23.3736C89.2256 23.1205 89.4161 22.8369 89.3982 22.5229C89.3774 22.1224 89.2494 21.2637 89.0142 19.9467C88.7821 18.633 88.6943 17.6173 88.7508 16.8995Z" fill="black"/>
<path d="M98.8992 20.9414C98.8605 19.3617 99.3204 18.0881 100.279 17.1204C101.237 16.1527 102.431 15.7746 103.86 15.9861C105.032 16.1527 106.053 16.7631 106.922 17.8173C107.795 18.8683 108.22 20.0474 108.199 21.3547C108.024 21.9443 107.217 22.6957 105.779 23.6089C104.342 24.5253 103.526 25.0893 103.333 25.3007C103.234 25.32 103.111 25.4033 102.962 25.5507C102.816 25.6981 102.782 25.8358 102.859 25.964C103.095 26.4254 103.389 26.7506 103.743 26.9397C104.095 27.1319 104.491 27.1848 104.931 27.0983C105.369 27.015 105.769 26.8996 106.132 26.7522C106.495 26.6048 106.921 26.395 107.409 26.1226C107.918 26.5424 108.079 27.1047 107.891 27.8096C107.707 28.5146 107.311 28.9199 106.704 29.0256C106.665 29.0256 106.451 29.0625 106.061 29.1362C105.668 29.2099 105.422 29.2515 105.324 29.2611C105.226 29.2739 105.011 29.2948 104.681 29.3236C104.348 29.3557 104.093 29.3557 103.918 29.3236C103.742 29.2948 103.526 29.2531 103.27 29.1987C103.017 29.1474 102.773 29.0689 102.538 28.9631C100.192 27.8256 98.9795 25.1517 98.8992 20.9414ZM102.1 22.5515C103.86 22.4682 104.915 21.8049 105.266 20.5617C105.578 19.8247 105.324 19.2624 104.502 18.8747C103.681 18.4838 102.949 18.4678 102.306 18.8266C101.913 19.0573 101.652 19.4723 101.524 20.0715C101.399 20.6739 101.405 21.233 101.542 21.7489C101.679 22.2647 101.865 22.5323 102.1 22.5515Z" fill="black"/>
<path d="M109.521 20.0573C109.482 19.7433 109.379 19.3443 109.213 18.8605C109.046 18.3735 108.909 17.9569 108.802 17.6109C108.695 17.2648 108.661 16.8915 108.699 16.491C108.738 16.0905 108.914 15.7428 109.226 15.448C109.949 14.7751 110.658 14.7639 111.351 15.4144C112.048 16.068 112.317 16.922 112.16 17.9762C112.532 17.9121 112.904 17.7166 113.276 17.3898C113.648 17.063 113.95 16.7425 114.182 16.4285C114.417 16.1113 114.736 15.8582 115.138 15.6691C115.539 15.4801 115.974 15.4592 116.441 15.6066C116.638 15.6899 116.766 15.7476 116.825 15.7797C116.882 15.8117 116.993 15.8694 117.16 15.9527C117.327 16.036 117.429 16.1097 117.468 16.1738C117.507 16.2379 117.56 16.3228 117.629 16.4285C117.697 16.5311 117.712 16.6464 117.674 16.7746C117.635 16.8995 117.566 17.0357 117.468 17.1831C117.096 17.7535 116.417 18.4744 115.432 19.346C114.444 20.2207 113.745 20.9849 113.334 21.6386C113.176 21.8693 113.082 22.2474 113.052 22.7729C113.026 23.2983 112.972 23.6572 112.892 23.8495C112.523 24.4583 112.621 25.1424 113.186 25.9018C113.481 26.2991 113.599 26.8246 113.539 27.4782C113.48 28.1319 113.264 28.659 112.892 29.0595C112.6 29.5209 112.185 29.7628 111.646 29.7853C111.107 29.8045 110.692 29.6138 110.4 29.2133C110.067 28.9826 109.92 28.51 109.958 27.7955C110.039 25.921 109.893 23.3416 109.521 20.0573Z" fill="black"/>
<path d="M124.304 15.7315C124.48 15.8148 124.837 15.967 125.376 16.1881C125.914 16.4091 126.31 16.5838 126.563 16.7119C126.816 16.8369 127.109 17.042 127.443 17.3272C127.776 17.6123 128.02 17.9327 128.175 18.2884C128.294 18.5223 128.29 18.8171 128.162 19.1728C128.034 19.5316 127.882 19.7736 127.706 19.8985C127.295 20.1741 126.739 20.1004 126.036 19.6774C125.331 19.2577 124.681 18.8684 124.085 18.5095C123.487 18.1538 122.768 18.1971 121.929 18.6393C121.557 18.9116 121.546 19.3218 121.898 19.8697C122.252 20.4176 122.624 20.7653 123.014 20.9127C125.047 21.6913 126.592 22.6061 127.648 23.6571C128.038 24.1633 128.209 24.7529 128.162 25.4258C128.114 26.0987 127.913 26.7411 127.559 27.3531C127.053 28.2791 126.222 29.0097 125.068 29.5448C123.913 30.0831 122.729 30.2161 121.518 29.9437C120.307 29.6682 119.427 28.92 118.879 27.6992C118.683 27.2794 118.751 26.8645 119.085 26.4543C119.415 26.0442 119.805 25.8167 120.254 25.7718C120.51 25.7526 120.76 25.9641 121.005 26.4063C121.249 26.8485 121.45 27.1112 121.607 27.1945C122.292 27.6143 123.093 27.6303 124.009 27.2426C124.929 26.8517 125.389 26.2252 125.389 25.3633C125.389 25.1518 125.237 24.9051 124.934 24.6231C124.63 24.338 124.332 24.1217 124.041 23.9743C123.826 23.8685 123.347 23.6523 122.603 23.3254C121.859 22.9986 121.326 22.7519 121.005 22.5853C120.683 22.4154 120.302 22.1303 119.862 21.7297C119.421 21.3324 119.094 20.8806 118.879 20.3744C118.525 19.5957 118.671 18.769 119.317 17.8943C119.963 17.0195 120.799 16.3675 121.826 15.9381C122.853 15.5056 123.679 15.4367 124.304 15.7315Z" fill="black"/>
<path d="M131.872 25.3011C132.303 25.5958 132.513 26.2591 132.501 27.2909C132.492 28.3226 132.195 29.0276 131.608 29.4057C130.864 29.8478 130.214 29.8158 129.657 29.3095C129.101 28.8065 128.784 28.1336 128.706 27.2909C128.647 26.7205 128.724 26.2463 128.938 25.8682C129.153 25.4901 129.437 25.2322 129.791 25.0944C130.142 24.9566 130.513 24.9101 130.903 24.955C131.296 24.9967 131.619 25.112 131.872 25.3011Z" fill="black"/>
<path d="M137.417 15.7316C137.435 15.5425 137.503 15.0635 137.622 14.2945C137.738 13.5255 137.816 12.9311 137.854 12.5114C137.935 11.7968 138.337 11.3867 139.06 11.2809C139.783 11.1752 140.419 11.3322 140.966 11.752C141.219 12.0275 141.269 12.3864 141.114 12.8286C140.349 14.6165 139.966 16.7633 139.966 19.269C140.124 19.2466 140.398 19.2146 140.788 19.1729C142.529 18.9198 143.586 18.963 143.958 19.3027C144.172 19.5334 144.221 19.8698 144.105 20.312C144.046 20.5203 143.947 20.7045 143.81 20.8647C143.674 21.0217 143.483 21.1483 143.239 21.2444C142.995 21.3374 142.779 21.4159 142.592 21.4799C142.407 21.544 142.139 21.5857 141.788 21.6049C141.437 21.6273 141.178 21.6434 141.011 21.653C140.844 21.6626 140.565 21.6626 140.172 21.653C139.782 21.6434 139.548 21.6385 139.471 21.6385C139.372 22.3531 139.456 24.4999 139.721 28.079C139.983 31.6581 140.094 33.7312 140.056 34.2984C140.038 34.6156 139.935 34.8735 139.748 35.0722C139.563 35.2741 139.323 35.375 139.029 35.375C138.677 35.375 138.414 35.3061 138.238 35.1683C138.063 35.0305 137.915 34.7614 137.796 34.3609C137.621 33.8354 137.441 31.7526 137.256 28.1127C137.069 24.4695 136.819 22.3419 136.506 21.7299C136.095 22.0695 135.646 22.3339 135.158 22.5229C134.67 22.712 134.186 22.7536 133.707 22.6479C133.227 22.5421 132.9 22.2265 132.724 21.701C132.644 21.4896 132.687 21.2476 132.854 20.9753C133.021 20.6997 133.221 20.4786 133.457 20.312C133.71 20.1646 134.272 19.99 135.144 19.7881C136.013 19.5895 136.585 19.3107 136.859 18.9518C137.034 18.7211 137.152 18.4327 137.212 18.0867C137.271 17.7374 137.314 17.3097 137.341 16.8034C137.371 16.3003 137.396 15.9431 137.417 15.7316Z" fill="black"/>
<path d="M145.422 20.0573C145.383 19.7433 145.281 19.3443 145.114 18.8605C144.95 18.3735 144.815 17.9569 144.708 17.6109C144.597 17.2648 144.563 16.8915 144.605 16.491C144.644 16.0905 144.819 15.7428 145.132 15.448C145.855 14.7751 146.563 14.7639 147.257 15.4144C147.95 16.068 148.22 16.922 148.065 17.9762C148.437 17.9121 148.808 17.7166 149.177 17.3898C149.549 17.063 149.852 16.7425 150.088 16.4285C150.323 16.1113 150.641 15.8582 151.043 15.6691C151.442 15.4801 151.877 15.4592 152.347 15.6066C152.543 15.6899 152.67 15.7476 152.726 15.7797C152.786 15.8117 152.899 15.8694 153.066 15.9527C153.232 16.036 153.335 16.1097 153.374 16.1738C153.412 16.2379 153.466 16.3228 153.534 16.4285C153.603 16.5311 153.618 16.6464 153.579 16.7746C153.54 16.8995 153.472 17.0357 153.374 17.1831C153.002 17.7535 152.322 18.4744 151.333 19.346C150.348 20.2207 149.65 20.9849 149.239 21.6386C149.082 21.8693 148.988 22.2474 148.958 22.7729C148.928 23.2983 148.875 23.6572 148.797 23.8495C148.425 24.4583 148.523 25.1424 149.092 25.9018C149.384 26.2991 149.501 26.8246 149.445 27.4782C149.385 28.1319 149.169 28.659 148.797 29.0595C148.503 29.5209 148.087 29.7628 147.552 29.7853C147.013 29.8045 146.598 29.6138 146.306 29.2133C145.973 28.9826 145.825 28.51 145.864 27.7955C145.941 25.921 145.794 23.3416 145.422 20.0573Z" fill="black"/>
<path d="M161.205 30.5112C161.05 30.4055 160.889 30.1892 160.723 29.8624C160.556 29.5355 160.404 29.3721 160.267 29.3721C159.993 29.3305 159.578 29.268 159.022 29.1847C158.462 29.1014 158.021 29.0228 157.7 28.9492C157.379 28.8755 157.002 28.7649 156.57 28.6175C156.142 28.4701 155.77 28.2586 155.454 27.9831C155.142 27.7107 154.878 27.3743 154.664 26.9738C154.292 26.3618 154.145 25.6088 154.222 24.7148C154.302 23.8208 154.537 23.0999 154.927 22.5519C155.377 21.9015 155.905 21.3808 156.512 20.9899C157.12 20.599 157.701 20.341 158.258 20.2161C158.815 20.0911 159.337 20.0222 159.825 20.0094C160.316 19.9998 160.718 20.0158 161.031 20.0575L161.5 20.0911C161.654 19.8796 161.732 19.5112 161.732 18.9857C161.732 18.4602 161.586 18.1654 161.294 18.1013C160.999 17.9539 160.604 17.9219 160.107 18.0052C159.606 18.0885 159.254 18.1622 159.048 18.2263C158.843 18.2903 158.501 18.4329 158.021 18.654C157.542 18.8751 157.176 19.0273 156.923 19.1106C156.414 19.2997 156.042 19.0001 155.807 18.2118C155.572 17.4204 155.552 16.9205 155.749 16.7123C156.493 16.1644 157.373 15.7542 158.388 15.4819C159.406 15.2063 160.418 15.1999 161.424 15.4626C162.433 15.7254 163.143 16.3198 163.553 17.2458C163.827 17.8578 163.979 18.5371 164.009 19.2837C164.036 20.0302 163.986 20.6983 163.861 21.2879C163.733 21.8775 163.586 22.5888 163.419 23.4219C163.253 24.2518 163.15 24.9615 163.111 25.5511C162.957 28.2042 162.674 29.8159 162.263 30.3862C161.968 30.7419 161.616 30.7836 161.205 30.5112ZM160.678 26.6902C160.738 26.3954 160.825 26.0269 160.941 25.5847C161.058 25.1426 161.15 24.7853 161.218 24.5129C161.287 24.2374 161.316 23.9057 161.308 23.518C161.299 23.1271 161.215 22.7314 161.058 22.3309C160.745 22.459 160.272 22.5808 159.638 22.6961C159.001 22.8115 158.472 22.9156 158.053 23.0085C157.633 23.1047 157.246 23.337 156.892 23.7055C156.541 24.0739 156.356 24.5738 156.338 25.205C156.338 25.628 156.694 26.0077 157.405 26.3441C158.12 26.6806 158.8 26.8584 159.446 26.8776C160.092 26.9001 160.502 26.8376 160.678 26.6902Z" fill="black"/>
<path d="M166.456 21.8886C165.578 20.1423 164.933 18.6475 164.522 17.4043C164.344 16.8564 164.451 16.4142 164.844 16.0778C165.234 15.7413 165.703 15.5843 166.25 15.6067C166.798 15.626 167.17 15.7942 167.366 16.1114C167.816 16.701 168.285 17.7584 168.773 19.2836C169.261 20.812 169.731 21.8918 170.184 22.523C170.535 21.8918 170.871 21.1548 171.193 20.3121C171.517 19.4694 171.761 18.7741 171.925 18.2262C172.092 17.6783 172.337 16.8372 172.662 15.7029C172.983 14.5654 173.203 13.7964 173.323 13.3958C173.576 12.723 174.068 12.3961 174.8 12.4154C175.536 12.4378 176.186 12.7117 176.751 13.2372C176.811 13.3622 176.802 13.5625 176.725 13.838C176.644 14.1104 176.604 14.2786 176.604 14.3427C176.548 14.426 176.421 14.5782 176.225 14.7993C176.028 15.0204 175.902 15.195 175.845 15.3232C174.788 19.4694 173.4 23.3113 171.679 26.8487C171.501 27.2044 171.163 27.4671 170.666 27.637C170.166 27.8068 169.76 27.7123 169.447 27.3534C169.292 27.206 169.14 27.0426 168.992 26.8631C168.846 26.6837 168.7 26.4882 168.554 26.2768C168.408 26.0685 168.286 25.8859 168.188 25.7288C168.09 25.5686 167.972 25.3572 167.835 25.0944C167.698 24.8317 167.596 24.6314 167.527 24.4936C167.459 24.359 167.361 24.1331 167.233 23.8159C167.108 23.4987 167.024 23.2936 166.983 23.2007C166.944 23.1046 166.852 22.8787 166.706 22.523C166.56 22.1642 166.477 21.9527 166.456 21.8886Z" fill="black"/>
<path d="M177.22 20.9414C177.182 19.3617 177.642 18.0881 178.6 17.1204C179.558 16.1527 180.752 15.7746 182.181 15.9861C183.354 16.1527 184.374 16.7631 185.244 17.8173C186.116 18.8683 186.541 20.0474 186.521 21.3547C186.345 21.9443 185.538 22.6957 184.101 23.6089C182.663 24.5253 181.846 25.0893 181.649 25.3007C181.554 25.32 181.432 25.4033 181.283 25.5507C181.138 25.6981 181.103 25.8358 181.181 25.964C181.416 26.4254 181.709 26.7506 182.06 26.9397C182.414 27.1319 182.81 27.1848 183.248 27.0983C183.688 27.015 184.09 26.8996 184.453 26.7522C184.814 26.6048 185.239 26.395 185.73 26.1226C186.236 26.5424 186.397 27.1047 186.212 27.8096C186.028 28.5146 185.632 28.9199 185.025 29.0256C184.986 29.0256 184.77 29.0625 184.377 29.1362C183.988 29.2099 183.743 29.2515 183.645 29.2611C183.547 29.2739 183.333 29.2948 183.002 29.3236C182.669 29.3557 182.414 29.3557 182.239 29.3236C182.063 29.2948 181.847 29.2531 181.591 29.1987C181.338 29.1474 181.094 29.0689 180.859 28.9631C178.514 27.8256 177.301 25.1517 177.22 20.9414ZM180.417 22.5515C182.179 22.4682 183.236 21.8049 183.587 20.5617C183.9 19.8247 183.645 19.2624 182.824 18.8747C182.002 18.4838 181.268 18.4678 180.623 18.8266C180.233 19.0573 179.974 19.4723 179.846 20.0715C179.721 20.6739 179.727 21.233 179.864 21.7489C180 22.2647 180.185 22.5323 180.417 22.5515Z" fill="black"/>
<path d="M188.253 18.2261C188.271 17.7006 188.226 17.0581 188.119 16.2987C188.012 15.5425 187.909 14.8745 187.811 14.2945C187.713 13.7145 187.679 13.0881 187.709 12.4152C187.738 11.7423 187.871 11.1528 188.106 10.6465C188.282 10.2492 188.594 9.95439 189.044 9.76214C189.493 9.57309 189.919 9.5795 190.32 9.78136C190.722 9.98002 190.943 10.3741 190.981 10.9637C190.999 11.0695 190.98 11.2857 190.923 11.6126C190.864 11.9394 190.834 12.1445 190.834 12.2278C190.834 12.7116 190.843 13.4165 190.861 14.3426C190.882 15.2686 190.892 16.1113 190.892 16.8707C190.892 17.6269 190.873 18.3318 190.834 18.9855C190.795 19.7416 190.819 20.8311 190.905 22.2537C190.995 23.6732 191.005 24.9309 190.937 26.0267C190.868 27.1225 190.637 28.1335 190.245 29.0595C190.051 29.5209 189.724 29.7836 189.262 29.8477C188.804 29.9118 188.369 29.8061 187.959 29.5305C187.744 29.3831 187.592 29.1364 187.503 28.7903C187.417 28.4411 187.421 28.1094 187.517 27.7954C187.773 26.847 187.95 25.8841 188.048 24.9068C188.146 23.9263 188.2 22.6943 188.209 21.2108C188.218 19.7272 188.232 18.7323 188.253 18.2261Z" fill="black"/>
</svg>
